<?xml version="1.0" encoding="UTF-8" standalone="no"?>
<svg
   xmlns:dc="http://purl.org/dc/elements/1.1/"
   xmlns:cc="http://creativecommons.org/ns#"
   xmlns:rdf="http://www.w3.org/1999/02/22-rdf-syntax-ns#"
   xmlns:svg="http://www.w3.org/2000/svg"
   xmlns="http://www.w3.org/2000/svg"
   id="svg8"
   version="1.1"
   viewBox="0 0 210 297"
   height="297mm"
   width="210mm"
   style="background-color: black;">
  <defs
     id="defs2" />
  <metadata
     id="metadata5">
    <rdf:RDF>
      <cc:Work
         rdf:about="">
        <dc:format>image/svg+xml</dc:format>
        <dc:type
           rdf:resource="http://purl.org/dc/dcmitype/StillImage" />
        <dc:title></dc:title>
      </cc:Work>
    </rdf:RDF>
  </metadata>
  <g
     id="layer1">
    <path
       id="path826"
       d="m 30.86963,-15.037173 c -0.209132,15.31450027 -1.201659,30.106737 -2.474209,44.712292 3.345392,3.855091 5.651799,2.168933 7.953235,0.456257 -0.569931,-14.9137 -0.320224,-30.03231035 0.534538,-45.302184 z"
       style="fill:#fffffa;stroke:none;stroke-width:0.26458332px;stroke-linecap:butt;stroke-linejoin:miter;stroke-opacity:1;fill-opacity:1" />
    <path
       id="path828"
       d="m 27.970236,32.794643 c -1.032615,42.564828 -3.380137,47.255007 -4.913688,77.485107 3.518079,0.60572 6.924749,0.93292 9.449403,-0.94493 -2.905408,-25.072419 1.038637,-50.711805 3.401786,-75.784226 -2.650897,0.379655 -4.780802,0.864586 -7.937501,-0.755951 z"
       style="fill:#ffffff;stroke:none;stroke-width:0.26458332px;stroke-linecap:butt;stroke-linejoin:miter;stroke-opacity:1;fill-opacity:1" />
    <path
       id="path830"
       d="m 23.369871,112.19655 c 2.457549,1.0221 4.939867,1.30844 8.145004,0.0878 -1.718549,21.55664 -3.395528,43.1029 -3.718846,64.31074 -2.672695,2.98565 -8.070093,3.31223 -8.018085,1e-5 1.277826,-21.67358 3.7494,-42.9137 3.591927,-64.39853 z"
       style="fill:#ffffff;stroke:none;stroke-width:0.26458332px;stroke-linecap:butt;stroke-linejoin:miter;stroke-opacity:1;fill-opacity:1" />
    <path
       id="path832"
       d="m 19.109771,180.06958 c 2.58554,1.22984 5.74918,1.934 8.686259,0 -1.436845,23.34249 -3.055739,46.76697 -1.603617,68.15373 -2.474851,3.19038 -5.588744,2.27416 -8.418989,0.13363 0.93218,-21.6999 1.466853,-44.46209 1.336347,-68.28736 z"
       style="fill:#ffffff;stroke:none;stroke-width:0.26458332px;stroke-linecap:butt;stroke-linejoin:miter;stroke-opacity:1;fill-opacity:1" />
    <path
       id="path834"
       d="m 17.907058,252.09872 c 3.507949,0.79815 6.108542,0.97495 8.552625,-10e-6 -0.230183,15.34328 -0.416486,30.6573 0.400904,45.30219 l -6.949008,0.26727 C 18.322562,283.22129 18.08522,267.25071 17.907058,252.09872 Z"
       style="fill:#ffffff;stroke:none;stroke-width:0.26458332px;stroke-linecap:butt;stroke-linejoin:miter;stroke-opacity:1;fill-opacity:1" />
    <path
       id="path836"
       d="m 19.087797,171.88988 -2.645833,-5.29167 -3.023809,0.18899 c -0.161712,1.03803 -0.475278,1.81555 -3.5907742,2.07887 -3.504476,0.2962 -6.4604388,-2.23036 -9.44940462,-4.91369 3.52777762,0.26705 7.03727012,1.08263 10.58333282,0.56696 2.413732,-0.35101 1.830001,1.03788 2.456846,1.7009 l 3.023809,0.37797 -1.322917,-2.64583 -3.401785,-1.5119 c -1.133929,1.00794 -2.3850312,0.99569 -3.7797621,0 -2.5300793,-1.80622 -6.0446375,-6.20426 -6.99255943,-11.1503 3.14980153,2.26786 6.97559203,5.62698 9.44940453,6.80357 1.405061,0.66827 2.120359,2.99646 1.700893,4.34673 l 3.023809,0.94493 -2.078869,-6.61458 c -5.1204111,-0.85793 -2.184725,-7.40497 -1.039434,-13.32366 1.011996,3.38576 5.042733,10.93551 1.417411,13.51265 l 2.645833,7.18155 1.700893,-3.40179 c -2.151519,-2.77479 1.523252,-5.87326 3.590774,-8.88244 l -0.377977,8.03199 -2.834821,1.41742 -1.322917,4.53571 2.456846,-1.32292 c -0.945602,-4.61154 7.204575,-5.22219 10.866815,-8.22098 -2.9267,3.41514 -3.926023,6.97511 -10.299851,8.78795 l -2.645834,1.32292 c 2.213145,2.77679 2.154652,4.19061 1.889881,5.48065 z"
       style="fill:#ffffff;stroke:none;stroke-width:0.26458332px;stroke-linecap:butt;stroke-linejoin:miter;stroke-opacity:1;fill-opacity:1" />
  </g>
</svg>
