<?xml version="1.0" encoding="UTF-8" standalone="no"?>
<svg
   xmlns:dc="http://purl.org/dc/elements/1.1/"
   xmlns:cc="http://creativecommons.org/ns#"
   xmlns:rdf="http://www.w3.org/1999/02/22-rdf-syntax-ns#"
   xmlns:svg="http://www.w3.org/2000/svg"
   xmlns="http://www.w3.org/2000/svg"
   id="svg860"
   version="1.1"
   viewBox="0 0 50 297"
   height="297mm"
   width="50mm"
   style="background-color: black;">
  <defs
     id="defs854" />
  <metadata
     id="metadata857">
    <rdf:RDF>
      <cc:Work
         rdf:about="">
        <dc:format>image/svg+xml</dc:format>
        <dc:type
           rdf:resource="http://purl.org/dc/dcmitype/StillImage" />
        <dc:title></dc:title>
      </cc:Work>
    </rdf:RDF>
  </metadata>
  <g
     id="layer1">
    <path
       id="path1416"
       d="M 33.94323,0.33081594 C 33.020472,14.610562 30.010202,33.267908 27.79603,49.24114 c 3.558434,3.669898 5.849987,1.51088 8.418989,0.801808 C 35.299313,33.591413 38.70431,18.335959 40.491333,0.59808547 Z"
       style="fill:#fffffe;stroke:none;stroke-width:0.26458332px;stroke-linecap:butt;stroke-linejoin:miter;stroke-opacity:1;fill-opacity:1" />
    <path
       id="path1418"
       d="m 27.796031,52.31474 c 2.628151,0.650498 5.256301,1.15448 7.884452,0.400902 -1.10708,23.819754 -1.342874,46.071196 -0.668176,66.683748 -2.672695,1.02006 -5.34539,2.73795 -8.018085,-0.66817 1.900985,-22.138828 1.33169,-44.277654 0.801809,-66.41648 z"
       style="fill:#fffffe;stroke:none;stroke-width:0.26458332px;stroke-linecap:butt;stroke-linejoin:miter;stroke-opacity:1;fill-opacity:1" />
    <path
       id="path1420"
       d="m 27.127857,121.67119 c 2.583605,0.84912 5.300845,1.12837 7.884451,0.1957 -0.744406,18.95544 -0.495418,37.77725 0.534538,56.7327 -2.099592,1.13357 -4.254725,2.14218 -7.750816,0.13363 0.165673,-18.63228 0.219372,-37.37653 -0.668173,-57.06203 z"
       style="fill:#fffffe;stroke:none;stroke-width:0.26458332px;stroke-linecap:butt;stroke-linejoin:miter;stroke-opacity:1;fill-opacity:1" />
    <path
       id="path1422"
       d="m 28.0633,181.53955 c 2.62815,0.66141 5.2563,0.49592 7.88445,-0.26727 l 3.87541,60.67019 c -2.672696,0.82878 -5.345391,1.78006 -8.018087,0.53454 0.471095,-19.71586 -1.382307,-40.51396 -3.741773,-60.93746 z"
       style="fill:#fffffe;stroke:none;stroke-width:0.26458332px;stroke-linecap:butt;stroke-linejoin:miter;stroke-opacity:1;fill-opacity:1" />
    <path
       id="path1424"
       d="m 31.537804,244.97415 c 2.211097,0.0787 3.869951,0.56718 7.939805,-0.28349 l -2.594414,53.04907 -7.216278,-0.20519 c 1.809146,-17.32255 2.194263,-34.88243 1.870887,-52.56039 z"
       style="fill:#fffffe;stroke:none;stroke-width:0.26458332px;stroke-linecap:butt;stroke-linejoin:miter;stroke-opacity:1;fill-opacity:1" />
    <path
       id="path1426"
       d="m 28.263753,44.764374 -3.274052,-7.283093 -4.009043,-3.207235 c -5.262626,1.924178 -7.134047,-10.394701 -10.690781,-15.635268 3.880748,5.127885 11.651078,9.422289 11.091685,15.501633 l 2.939965,2.138156 -2.138156,-9.621703 C 28.50761,23.040909 22.867166,11.110178 15.635267,6.7452844 18.223706,13.694984 17.098739,25.086588 22.851545,26.656864 l 3.073599,11.626223 1.603617,-4.276312 c -4.50318,-4.096291 4.098093,-14.788895 6.414469,-21.9161 -2.034588,7.626326 2.491737,19.396386 -6.147199,22.851545 l -1.336348,3.875408 2.405426,4.142676 z"
       style="fill:#fffffe;stroke:none;stroke-width:0.26458332px;stroke-linecap:butt;stroke-linejoin:miter;stroke-opacity:1;fill-opacity:1" />
    <path
       id="path1428"
       d="m 27.411339,110.97368 -3.357081,-7.20956 -3.207235,-1.87088 C 13.297159,104.08997 8.904881,93.733297 2.939965,89.598836 c 6.5553032,3.684175 12.608784,2.526436 18.531342,11.272574 l 2.449316,1.95727 -3.348976,-7.279738 C 9.0704475,89.814275 12.071673,81.268937 7.7508163,73.96357 11.903545,81.973405 20.417653,82.753316 21.561053,95.844464 l 4.364091,9.523276 0.668174,-4.54358 c -2.612542,0.44956 -3.465846,-14.257007 -2.939965,-20.713391 5.004998,5.427637 7.954779,19.172234 3.741773,21.114291 l -0.801808,5.47903 1.202713,2.27179 z"
       style="fill:#fffffe;stroke:none;stroke-width:0.26458332px;stroke-linecap:butt;stroke-linejoin:miter;stroke-opacity:1;fill-opacity:1" />
    <path
       id="path1430"
       d="m 34.538488,143.79271 2.740327,-9.63839 c -3.707197,-2.91138 2.955772,-18.62781 7.843005,-19.56027 -5.412099,3.90879 -1.699332,18.8947 -6.99256,19.84375 l -3.496278,12.18974 3.401785,-2.36236 c -1.31857,-3.16036 7.116286,-12.74189 11.811757,-15.40253 -0.712752,6.48205 -4.949975,16.28351 -11.433781,15.78051 l -3.779761,3.49628 z"
       style="fill:#fffffe;stroke:none;stroke-width:0.26458332px;stroke-linecap:butt;stroke-linejoin:miter;stroke-opacity:1;fill-opacity:1" />
    <path
       id="path1432"
       d="m 27.862848,174.59054 -5.412208,-13.4971 -3.340869,-2.6727 C 14.327175,160.41245 7.5896889,156.37968 1.8040693,155.28033 1.065877,152.92974 15.15566,151.38214 18.842502,157.4853 l 2.672695,2.00452 c -1.70472,-4.32901 -5.007059,-10.48983 -8.68626,-11.62623 -5.4319781,2.89524 -10.7601306,-4.54006 -11.091685,-9.95579 1.2681886,3.40292 12.074326,6.31129 10.690781,9.28762 l 2.53906,1.33635 -6.1471986,-9.48807 c 5.2593176,6.55166 15.7791126,20.21914 18.8425016,33.00779 z"
       style="fill:#fffffe;stroke:none;stroke-width:0.26458332px;stroke-linecap:butt;stroke-linejoin:miter;stroke-opacity:1;fill-opacity:1" />
    <path
       id="path1434"
       d="m 31.805073,239.20295 -5.612659,-10.62396 -3.207235,-0.0668 c -1.0933,3.94976 -7.571063,0.002 -11.358955,0 3.695381,-0.2946 9.655441,-6.08913 11.024868,-0.73499 h 2.806331 l -1.403165,-3.14041 -3.474504,-1.06908 c -4.313493,3.58516 -9.617938,-4.72113 -14.4325548,-7.14946 2.1580278,-0.70667 13.3535818,0.77062 14.2321018,6.48128 l 3.207235,0.86863 -4.34313,-6.61492 c -3.671641,1.40032 -6.322398,-8.6503 -11.024868,-12.02713 -0.7984956,-0.99898 13.711883,3.66365 11.693042,11.75986 l 5.34539,8.0849 0.868626,-3.27405 c -4.035552,-5.08742 -1.459681,-11.50735 -1.069078,-16.43707 4.729189,4.00379 4.628065,17.24724 1.603617,16.5707 l -0.935443,4.14268 1.135895,2.13816 2.138157,-1.80407 c -4.016543,-2.50415 5.57103,-6.93741 9.68852,-13.8312 -2.125958,7.5211 -3.468077,17.31906 -9.153981,14.49937 l -2.138156,1.93771 4.276312,7.75081 z"
       style="fill:#fffffe;stroke:none;stroke-width:0.26458332px;stroke-linecap:butt;stroke-linejoin:miter;stroke-opacity:1;fill-opacity:1" />
    <path
       id="path1436"
       d="m 29.813785,292.90433 c -0.595355,-2.38158 -2.428895,-4.07528 -5.291666,-5.19718 -3.420412,3.83155 -9.441476,-5.62911 -15.0245537,-12.85118 5.2512197,2.10738 14.3438737,4.07518 15.1190477,12.00073 l 3.590774,2.26785 -4.819197,-9.92188 c -6.394432,-2.87945 -7.222792,-11.72256 -10.488839,-17.95385 3.379942,2.09596 12.253389,8.32075 11.244792,17.48139 l 5.764137,12.66221 1.41741,-3.68527 c -3.365376,-3.19304 -2.48652,-14.0208 -2.551339,-23.15104 l 2.645833,6.0476 c 0.02869,8.56185 -0.936022,15.1369 -1.606399,22.30062 z"
       style="fill:#fffffe;stroke:none;stroke-width:0.26458332px;stroke-linecap:butt;stroke-linejoin:miter;stroke-opacity:1;fill-opacity:1" />
  </g>
</svg>
